<svg width="29" height="22" viewBox="0 0 29 22" fill="none" xmlns="http://www.w3.org/2000/svg">
<path d="M25.375 0H3.625C2.66391 0.000992641 1.74247 0.37006 1.06287 1.02622C0.383277 1.68238 0.00102809 2.57205 0 3.5V18.5C0.00102809 19.428 0.383277 20.3176 1.06287 20.9738C1.74247 21.6299 2.66391 21.999 3.625 22H25.375C26.3361 21.999 27.2575 21.6299 27.9371 20.9738C28.6167 20.3176 28.999 19.428 29 18.5V3.5C28.999 2.57205 28.6167 1.68238 27.9371 1.02622C27.2575 0.37006 26.3361 0.000992641 25.375 0ZM24.4571 5.78938L15.1357 12.7894C14.9539 12.9258 14.7302 12.9999 14.5 12.9999C14.2698 12.9999 14.0461 12.9258 13.8643 12.7894L4.5429 5.78938C4.43338 5.70952 4.34139 5.60945 4.27228 5.49497C4.20316 5.3805 4.1583 5.2539 4.1403 5.12254C4.1223 4.99118 4.13151 4.85767 4.16741 4.72978C4.20331 4.60189 4.26518 4.48216 4.34942 4.37755C4.43366 4.27294 4.53859 4.18554 4.65811 4.12043C4.77764 4.05532 4.90937 4.01379 5.04567 3.99825C5.18196 3.98272 5.32009 3.9935 5.45203 4.02996C5.58397 4.06642 5.70709 4.12783 5.81424 4.21062L14.5 10.7331L23.1858 4.21062C23.4029 4.05226 23.676 3.98281 23.9458 4.01728C24.2156 4.05175 24.4605 4.18738 24.6276 4.39483C24.7946 4.60228 24.8704 4.86488 24.8385 5.12585C24.8066 5.38682 24.6696 5.62518 24.4571 5.78938Z" fill="#585858"/>
</svg>
