<svg width="134" height="105" viewBox="0 0 134 105" fill="none" xmlns="http://www.w3.org/2000/svg">
<path d="M61.2897 19.6699C65.0353 19.6699 68.0717 16.0946 68.0717 11.6843C68.0717 7.274 65.0353 3.69873 61.2897 3.69873C57.5442 3.69873 54.5078 7.274 54.5078 11.6843C54.5078 16.0946 57.5442 19.6699 61.2897 19.6699Z" stroke="#8DC63F" stroke-width="6" stroke-miterlimit="10" stroke-linecap="round" stroke-linejoin="round"/>
<path d="M74.5977 12.0203H71.7779C71.7859 12.2203 71.7939 12.4203 71.7939 12.6284C71.7939 19.2697 67.0968 24.6548 61.2975 24.6548C55.4981 24.6548 50.8011 19.2697 50.8011 12.6284C50.8011 12.4283 50.809 12.2203 50.817 12.0203H47.9972C43.9952 12.0203 40.8318 16.1171 41.1354 20.91L43.9392 45.0428C44.2108 49.3557 47.2064 52.6843 50.8011 52.6843H71.8099C75.4125 52.6843 78.4001 49.3557 78.6717 45.0428L81.4755 20.91C81.7631 16.1091 78.5998 12.0203 74.5977 12.0203Z" stroke="#8DC63F" stroke-width="6" stroke-miterlimit="10" stroke-linecap="round" stroke-linejoin="round"/>
<path d="M110.105 62.7744C113.851 62.7744 116.887 59.1991 116.887 54.7888C116.887 50.3785 113.851 46.8032 110.105 46.8032C106.36 46.8032 103.323 50.3785 103.323 54.7888C103.323 59.1991 106.36 62.7744 110.105 62.7744Z" stroke="#8DC63F" stroke-width="6" stroke-miterlimit="10" stroke-linecap="round" stroke-linejoin="round"/>
<path d="M123.413 55.125H120.593C120.601 55.325 120.609 55.5251 120.609 55.7331C120.609 62.3744 115.912 67.7595 110.113 67.7595C104.314 67.7595 99.6165 62.3744 99.6165 55.7331C99.6165 55.5331 99.6245 55.325 99.6324 55.125H96.8127C92.8106 55.125 89.6473 59.2218 89.9508 64.0148L92.7547 88.1475C93.0263 92.4604 96.0218 95.7891 99.6165 95.7891H120.625C124.228 95.7891 127.216 92.4604 127.487 88.1475L130.291 64.0148C130.579 59.2218 127.415 55.125 123.413 55.125Z" stroke="#8DC63F" stroke-width="6" stroke-miterlimit="10" stroke-linecap="round" stroke-linejoin="round"/>
<path d="M23.3937 68.5675C27.1393 68.5675 30.1757 64.9922 30.1757 60.5819C30.1757 56.1716 27.1393 52.5963 23.3937 52.5963C19.6482 52.5963 16.6118 56.1716 16.6118 60.5819C16.6118 64.9922 19.6482 68.5675 23.3937 68.5675Z" stroke="#8DC63F" stroke-width="6" stroke-miterlimit="10" stroke-linecap="round" stroke-linejoin="round"/>
<path d="M36.7022 60.9181H33.8824C33.8904 61.1181 33.8984 61.3182 33.8984 61.5262C33.8984 68.1675 29.2013 73.5526 23.4019 73.5526C17.6026 73.5526 12.9056 68.1675 12.9056 61.5262C12.9056 61.3262 12.9135 61.1181 12.9215 60.9181H10.1017C6.09966 60.9181 2.93634 65.0149 3.23989 69.8079L6.04373 93.9407C6.31533 98.2535 9.3109 101.582 12.9056 101.582H33.9144C37.517 101.582 40.5046 98.2535 40.7762 93.9407L43.58 69.8079C43.8676 65.0069 40.7123 60.9181 36.7022 60.9181Z" stroke="#8DC63F" stroke-width="6" stroke-miterlimit="10" stroke-linecap="round" stroke-linejoin="round"/>
</svg>
