<svg width="74" height="101" viewBox="0 0 74 101" fill="none" xmlns="http://www.w3.org/2000/svg">
<path d="M15.8486 90.6906V2.53735H52.7262V93.2429" stroke="#8DC63F" stroke-width="5" stroke-miterlimit="10" stroke-linecap="round" stroke-linejoin="round"/>
<path d="M46.9351 23.2666V26.8006H39.9554V23.2666H46.9351ZM47.9593 22.2469H38.9375V27.8266H47.9593V22.2469Z" fill="#8DC63F"/>
<path d="M48.0981 28.3712V28.9982H38.7918V28.3712H48.0981ZM49.1223 27.3452H37.7739V30.0179H49.1223V27.3452Z" fill="#8DC63F"/>
<path d="M29.5996 23.2666V26.8006H22.6199V23.2666H29.5996ZM30.6175 22.2469H21.5957V27.8266H30.6175V22.2469Z" fill="#8DC63F"/>
<path d="M30.7627 28.3712V28.9982H21.4563V28.3712H30.7627ZM31.7805 27.3452H20.4321V30.0179H31.7805V27.3452Z" fill="#8DC63F"/>
<path d="M29.5996 10.834V14.368H22.6199V10.834H29.5996ZM30.6175 9.81433H21.5957V15.394H30.6175V9.81433Z" fill="#8DC63F"/>
<path d="M30.7627 15.9324V16.5594H21.4563V15.9324H30.7627ZM31.7805 14.9127H20.4321V17.5854H31.7805V14.9127Z" fill="#8DC63F"/>
<path d="M46.9351 10.834V14.368H39.9554V10.834H46.9351ZM47.9593 9.81433H38.9375V15.394H47.9593V9.81433Z" fill="#8DC63F"/>
<path d="M48.0981 15.9324V16.5594H38.7918V15.9324H48.0981ZM49.1223 14.9127H37.7739V17.5854H49.1223V14.9127Z" fill="#8DC63F"/>
<path d="M46.9351 48.1373V51.6713H39.9554V48.1373H46.9351ZM47.9593 47.1177H38.9375V52.6973H47.9593V47.1177Z" fill="#8DC63F"/>
<path d="M48.0981 53.2356V53.8626H38.7918V53.2356H48.0981ZM49.1223 52.2159H37.7739V54.8886H49.1223V52.2159Z" fill="#8DC63F"/>
<path d="M29.5996 48.1373V51.6713H22.6199V48.1373H29.5996ZM30.6175 47.1177H21.5957V52.6973H30.6175V47.1177Z" fill="#8DC63F"/>
<path d="M30.7627 53.2356V53.8626H21.4563V53.2356H30.7627ZM31.7805 52.2159H20.4321V54.8886H31.7805V52.2159Z" fill="#8DC63F"/>
<path d="M29.5996 35.7047V39.2387H22.6199V35.7047H29.5996ZM30.6175 34.6787H21.5957V40.2584H30.6175V34.6787Z" fill="#8DC63F"/>
<path d="M30.7627 40.8031V41.4301H21.4563V40.8031H30.7627ZM31.7805 39.7834H20.4321V42.4561H31.7805V39.7834Z" fill="#8DC63F"/>
<path d="M46.9351 35.7047V39.2387H39.9554V35.7047H46.9351ZM47.9593 34.6787H38.9375V40.2584H47.9593V34.6787Z" fill="#8DC63F"/>
<path d="M48.0981 40.8031V41.4301H38.7918V40.8031H48.0981ZM49.1223 39.7834H37.7739V42.4561H49.1223V39.7834Z" fill="#8DC63F"/>
<path d="M46.9351 73.0017V76.5357H39.9554V73.0017H46.9351ZM47.9593 71.9821H38.9375V77.5617H47.9593V71.9821Z" fill="#8DC63F"/>
<path d="M48.0981 78.1063V78.7333H38.7918V78.1063H48.0981ZM49.1223 77.0803H37.7739V79.753H49.1223V77.0803Z" fill="#8DC63F"/>
<path d="M29.5996 73.0017V76.5357H22.6199V73.0017H29.5996ZM30.6175 71.9821H21.5957V77.5617H30.6175V71.9821Z" fill="#8DC63F"/>
<path d="M30.7627 78.1063V78.7333H21.4563V78.1063H30.7627ZM31.7805 77.0803H20.4321V79.753H31.7805V77.0803Z" fill="#8DC63F"/>
<path d="M29.5996 60.5696V64.1036H22.6199V60.5696H29.5996ZM30.6175 59.5499H21.5957V65.1296H30.6175V59.5499Z" fill="#8DC63F"/>
<path d="M30.7627 65.6679V66.2949H21.4563V65.6679H30.7627ZM31.7805 64.6482H20.4321V67.3208H31.7805V64.6482Z" fill="#8DC63F"/>
<path d="M46.9351 60.5696V64.1036H39.9554V60.5696H46.9351ZM47.9593 59.5499H38.9375V65.1296H47.9593V59.5499Z" fill="#8DC63F"/>
<path d="M48.0981 65.6679V66.2949H38.7918V65.6679H48.0981ZM49.1223 64.6482H37.7739V67.3208H49.1223V64.6482Z" fill="#8DC63F"/>
<path d="M52.7261 2.53748L58.7827 13.0128V93.243" stroke="#8DC63F" stroke-width="5" stroke-miterlimit="10" stroke-linecap="round" stroke-linejoin="round"/>
<path d="M4.20947 97.3912C4.20947 97.3912 25.7682 82.2737 34.7521 89.4746C43.736 96.6756 70.3209 93.4329 70.3209 93.4329" stroke="#8DC63F" stroke-width="7" stroke-miterlimit="10" stroke-linecap="round" stroke-linejoin="round"/>
</svg>
