<svg width="114" height="96" viewBox="0 0 114 96" fill="none" xmlns="http://www.w3.org/2000/svg">
<path d="M100.666 92.0088H13.1681C7.91568 92.0088 3.65771 87.7437 3.65771 82.4825V27.0219C3.65771 21.7606 7.91568 17.4955 13.1681 17.4955H100.666C105.919 17.4955 110.177 21.7606 110.177 27.0219V82.4895C110.177 87.7437 105.919 92.0088 100.666 92.0088Z" stroke="#8DC63F" stroke-width="7" stroke-miterlimit="10" stroke-linecap="round" stroke-linejoin="round"/>
<path d="M73.8928 27.653H39.9482V11.8693C39.9482 9.59641 41.7901 7.75146 44.0591 7.75146H69.7819C72.051 7.75146 73.8928 9.59641 73.8928 11.8693V27.653Z" stroke="#8DC63F" stroke-width="5" stroke-miterlimit="10" stroke-linecap="round" stroke-linejoin="round"/>
<path d="M73.3607 2.67969H40.4806C38.1415 2.67969 36.2437 4.58075 36.2437 6.92376V17.5655H77.5976V6.92376C77.5976 4.58075 75.6998 2.67969 73.3607 2.67969Z" stroke="#8DC63F" stroke-width="5" stroke-miterlimit="10" stroke-linecap="round" stroke-linejoin="round"/>
</svg>
